<?xml version="1.0" encoding="utf-8"?>
<!-- Generator: Adobe Illustrator 16.0.4, SVG Export Plug-In . SVG Version: 6.00 Build 0)  -->
<!DOCTYPE svg PUBLIC "-//W3C//DTD SVG 1.1 Tiny//EN" "http://www.w3.org/Graphics/SVG/1.1/DTD/svg11-tiny.dtd">
<svg version="1.1" baseProfile="tiny" id="Layer_1" xmlns="http://www.w3.org/2000/svg" xmlns:xlink="http://www.w3.org/1999/xlink"
	 x="0px" y="0px" width="12px" height="12px" viewBox="0 0 12 12" overflow="scroll" xml:space="preserve">
<g>
	<path fill-rule="evenodd" fill="#444444" d="M6,1.739c-1.928,0-3.492,1.567-3.492,3.5c0,0.899,0.339,1.719,0.895,2.34l0.549-0.55
		c-0.417-0.479-0.67-1.104-0.67-1.79C3.283,3.734,4.5,2.515,6,2.515c1.5,0,2.716,1.219,2.716,2.724c0,0.685-0.252,1.311-0.668,1.789
		l0.549,0.549c0.556-0.62,0.894-1.439,0.894-2.338C9.491,3.306,7.929,1.739,6,1.739z M6,0C3.114,0,0.774,2.345,0.774,5.238
		c0,1.379,0.531,2.633,1.4,3.568l0.65-0.649c-0.703-0.77-1.133-1.793-1.133-2.919c0-2.385,1.929-4.319,4.309-4.319
		c2.379,0,4.308,1.934,4.308,4.319c0,1.125-0.429,2.148-1.132,2.917l0.65,0.649c0.868-0.935,1.398-2.188,1.398-3.566
		C11.226,2.345,8.887,0,6,0z M6,3.943c-0.714,0-1.292,0.58-1.292,1.295S5.287,6.533,6,6.533c0.713,0,1.292-0.58,1.292-1.295
		S6.713,3.943,6,3.943z M6.622,6.871H5.347c-0.26,0-0.471,0.211-0.471,0.471c0,0,0.287,3.865,0.326,4.15
		c0.039,0.283,0.148,0.47,0.332,0.47c0,0,0.208,0.038,0.424,0.038c0.234,0,0.477-0.038,0.477-0.038c0.184,0,0.285-0.203,0.332-0.47
		c0.048-0.269,0.326-4.15,0.326-4.15C7.093,7.082,6.882,6.871,6.622,6.871z"/>
</g>
</svg>
