<?xml version="1.0" encoding="utf-8"?>
<!-- Generator: Adobe Illustrator 16.0.4, SVG Export Plug-In . SVG Version: 6.00 Build 0)  -->
<!DOCTYPE svg PUBLIC "-//W3C//DTD SVG 1.1 Tiny//EN" "http://www.w3.org/Graphics/SVG/1.1/DTD/svg11-tiny.dtd">
<svg version="1.1" baseProfile="tiny" id="Layer_1" xmlns="http://www.w3.org/2000/svg" xmlns:xlink="http://www.w3.org/1999/xlink"
	 x="0px" y="0px" width="16px" height="16px" viewBox="0 0 16 16" overflow="visible" xml:space="preserve">
<g>
	<path fill="#444444" d="M5.7,0L1.558,4.511H5.7V0z M13.227,0.04H6.181v3.687c0,0.325-0.021,0.729-0.021,1.204
		c-0.529,0-0.847,0.01-1.192,0.01H1.593v10.16C1.694,15.537,2.029,15.883,2.459,16h11.086c0.516-0.14,0.896-0.611,0.896-1.174V1.255
		C14.441,0.584,13.898,0.04,13.227,0.04z M12.494,11.478H3.381c-0.31,0-0.561-0.052-0.561-0.228c0-0.177,0.251-0.227,0.561-0.227
		h9.113c0.311,0,0.561,0.051,0.561,0.227S12.805,11.478,12.494,11.478z M12.494,10.089H3.381c-0.31,0-0.561-0.051-0.561-0.227
		s0.251-0.227,0.561-0.227h9.113c0.311,0,0.561,0.051,0.561,0.227S12.805,10.089,12.494,10.089z M12.498,8.586H3.383
		c-0.31,0-0.56-0.052-0.56-0.227c0-0.176,0.25-0.227,0.56-0.227h9.115c0.309,0,0.561,0.051,0.561,0.227
		C13.059,8.534,12.807,8.586,12.498,8.586z"/>
</g>
</svg>
