<?xml version="1.0" encoding="utf-8"?>
<!-- Generator: Adobe Illustrator 16.0.4, SVG Export Plug-In . SVG Version: 6.00 Build 0)  -->
<!DOCTYPE svg PUBLIC "-//W3C//DTD SVG 1.1 Tiny//EN" "http://www.w3.org/Graphics/SVG/1.1/DTD/svg11-tiny.dtd">
<svg version="1.1" baseProfile="tiny" id="Layer_1" xmlns="http://www.w3.org/2000/svg" xmlns:xlink="http://www.w3.org/1999/xlink"
	 x="0px" y="0px" width="12px" height="12px" viewBox="0 0 12 12" overflow="visible" xml:space="preserve">
<g>
	<path fill="#444444" d="M4.275,0L1.168,3.383h3.106V0z M9.92,0.03H4.635v2.765c0,0.244-0.016,0.546-0.016,0.903
		c-0.397,0-0.635,0.007-0.894,0.007h-2.53v7.62C1.271,11.652,1.522,11.912,1.844,12h8.314c0.387-0.104,0.673-0.459,0.673-0.881
		V0.941C10.831,0.438,10.424,0.03,9.92,0.03z M9.37,8.608H2.536c-0.232,0-0.42-0.039-0.42-0.171c0-0.133,0.188-0.17,0.42-0.17H9.37
		c0.233,0,0.421,0.038,0.421,0.17S9.604,8.608,9.37,8.608z M9.37,7.566H2.536c-0.232,0-0.42-0.038-0.42-0.17s0.188-0.17,0.42-0.17
		H9.37c0.233,0,0.421,0.038,0.421,0.17S9.604,7.566,9.37,7.566z M9.373,6.439H2.538c-0.232,0-0.42-0.039-0.42-0.17
		c0-0.132,0.188-0.17,0.42-0.17h6.835c0.231,0,0.421,0.038,0.421,0.17C9.794,6.4,9.604,6.439,9.373,6.439z"/>
</g>
</svg>
