<?xml version="1.0" encoding="utf-8"?>
<!-- Generator: Adobe Illustrator 16.0.4, SVG Export Plug-In . SVG Version: 6.00 Build 0)  -->
<!DOCTYPE svg PUBLIC "-//W3C//DTD SVG 1.1 Tiny//EN" "http://www.w3.org/Graphics/SVG/1.1/DTD/svg11-tiny.dtd">
<svg version="1.1" baseProfile="tiny" id="Layer_1" xmlns="http://www.w3.org/2000/svg" xmlns:xlink="http://www.w3.org/1999/xlink"
	 x="0px" y="0px" width="16px" height="16px" viewBox="0 0 16 16" overflow="visible" xml:space="preserve">
<path fill-rule="evenodd" fill="#444444" d="M1.179,16H14.82c0.649,0,1.178-0.528,1.178-1.178V1.182
	c0-0.648-0.526-1.174-1.173-1.178L8.457,0H7.305L1.103,0.008c-0.613,0.04-1.101,0.55-1.101,1.174v13.64
	C0.002,15.472,0.53,16,1.179,16z M1.916,14.947c-0.475,0-0.861-0.387-0.861-0.861v-1.19h1.863v2.052H1.916z M2.917,9.738H1.054
	l0-2.106h1.864V9.738z M1.054,10.264h1.864v2.105H1.054L1.054,10.264z M3.444,14.947v-2.052h1.889v2.052H3.444z M5.859,14.947
	v-2.052h1.888v2.052H5.859z M8.274,14.947v-2.052h1.888v2.052H8.274z M10.688,14.947v-2.052h1.889v2.052H10.688z M14.084,14.947
	h-0.981v-2.052h1.843l-0.001,1.19C14.944,14.561,14.559,14.947,14.084,14.947z M13.103,5.061h1.845l-0.001,2.045h-1.844V5.061z
	 M13.103,7.632h1.844v2.106h-1.844V7.632z M14.946,10.264l-0.001,2.105h-1.843v-2.105H14.946z M10.688,5.061h1.889v2.045h-1.889
	V5.061z M10.688,7.632h1.889v2.106h-1.889V7.632z M12.576,10.264v2.105h-1.889v-2.105H12.576z M8.274,5.061h1.888v2.045H8.274V5.061
	z M8.274,7.632h1.888v2.106H8.274V7.632z M10.162,10.264v2.105H8.274v-2.105H10.162z M5.859,5.061h1.888v2.045H5.859V5.061z
	 M5.859,7.632h1.888v2.106H5.859V7.632z M7.748,10.264v2.105H5.859v-2.105H7.748z M3.444,5.061h1.889v2.045H3.444V5.061z
	 M5.333,10.264v2.105H3.444v-2.105H5.333z M2.917,5.061v2.045H1.053l0-2.045H2.917z"/>
</svg>
