<?xml version="1.0" encoding="utf-8"?>
<!-- Generator: Adobe Illustrator 16.0.4, SVG Export Plug-In . SVG Version: 6.00 Build 0)  -->
<!DOCTYPE svg PUBLIC "-//W3C//DTD SVG 1.1 Tiny//EN" "http://www.w3.org/Graphics/SVG/1.1/DTD/svg11-tiny.dtd">
<svg version="1.1" baseProfile="tiny" id="Layer_1" xmlns="http://www.w3.org/2000/svg" xmlns:xlink="http://www.w3.org/1999/xlink"
	 x="0px" y="0px" width="16px" height="16px" viewBox="0 0 16 16" overflow="scroll" xml:space="preserve">
<g>
	<path fill="#444444" d="M2.702,10.594C1.212,10.594,0,11.806,0,13.296s1.212,2.702,2.702,2.702s2.702-1.212,2.702-2.702
		S4.192,10.594,2.702,10.594z M1.81,5.1c-0.1,0-0.18,0.08-0.18,0.179v2.681c0,0.099,0.08,0.179,0.18,0.179
		c3.337,0,6.052,2.714,6.052,6.052c0,0.099,0.08,0.179,0.179,0.179h2.684c0.099,0,0.179-0.08,0.179-0.179
		c0-0.012-0.002-0.024-0.004-0.036C10.879,9.158,6.81,5.1,1.81,5.1z M15.996,14.153C15.978,6.347,9.62,0.002,1.809,0.002
		c-0.099,0-0.179,0.08-0.179,0.179v2.68c0,0.099,0.08,0.179,0.179,0.179c6.148,0,11.15,5.002,11.15,11.15
		c0,0.099,0.08,0.179,0.179,0.179h2.684c0.099,0,0.179-0.08,0.179-0.179C16,14.177,15.999,14.165,15.996,14.153z"/>
</g>
</svg>
