<?xml version="1.0" encoding="utf-8"?>
<!-- Generator: Adobe Illustrator 16.0.4, SVG Export Plug-In . SVG Version: 6.00 Build 0)  -->
<!DOCTYPE svg PUBLIC "-//W3C//DTD SVG 1.1 Tiny//EN" "http://www.w3.org/Graphics/SVG/1.1/DTD/svg11-tiny.dtd">
<svg version="1.1" baseProfile="tiny" id="Layer_1" xmlns="http://www.w3.org/2000/svg" xmlns:xlink="http://www.w3.org/1999/xlink"
	 x="0px" y="0px" width="16px" height="16px" viewBox="0 0 16 16" xml:space="preserve">
<path fill-rule="evenodd" fill="#444444" d="M13.319,13.827H1.667c-0.067,0.003-0.12,0.002-0.151,0.002
	c-0.019,0-0.036-0.002-0.053-0.002H1.43v-0.001C0.447,13.791,0,13.162,0,12.212V3.737h2.055c0-0.245,0-1.566,0-1.566h13.943v8.806
	C15.998,10.977,16.179,13.657,13.319,13.827z M2.055,4.658H1.054l-0.003,7.554c0,0-0.174,0.551,0.428,0.551
	c0,0,0.576,0.038,0.576-0.551C2.055,12.212,2.055,7.738,2.055,4.658z M15.01,3.186H3.106c0,2.625,0,9.026,0,9.026
	c0,0.216-0.024,0.402-0.064,0.564c3.156,0.003,10.253-0.005,10.334-0.005c1.615,0.004,1.634-1.607,1.634-1.607V3.186z M11.518,9.826
	h2.524v0.546h-2.524V9.826z M8.753,8.312h5.257v0.503H8.753V8.312z M8.753,6.226h5.257v0.502H8.753V6.226z M8.753,4.172h5.257v0.525
	H8.753V4.172z M4.149,8.009v-3.82h3.046v3.82v0.188H4.149V8.009z M13,5.673H8.753V5.17H13V5.673z M13,7.76H8.753V7.258H13V7.76z
	 M10.885,10.372H4.149V9.826h6.736V10.372z M14.01,11.407H4.149v-0.509h9.861V11.407z"/>
</svg>
